# xmcd
#
# Track frame offsets:
#	150
#	21690
#	40336
#	62487
#	77873
#	92201
#	124056
#	140157
#	153752
#	172847
#	193507
#	210415
#
# Disc length: 3148 seconds
#
# Revision: 1
# Processed by: cddbd v1.5PL3 Copyright (c) Steve Scherf et al.
# Submitted via: EasyCDDAExtractor 7.0.5.1
#
DISCID=a10c4a0c
DTITLE=Larry Garner - One Upon The Blues
DYEAR=2000
DGENRE=Blues
TTITLE0=Where Blues Trun Back
TTITLE1=Slower Traffic Keep Right
TTITLE2=A Real Gambling Woman
TTITLE3=That Was Her Dance
TTITLE4=I Won't Tell Your Mama
TTITLE5=I Ain't The One
TTITLE6=Virus Blues
TTITLE7=Edward Had a Shotgun
TTITLE8=If She Tells You No
TTITLE9=The Muddy River
TTITLE10=Kleptomatiac
TTITLE11=Nothing But Life
EXTD=
EXTT0=
EXTT1=
EXTT2=
EXTT3=
EXTT4=
EXTT5=
EXTT6=
EXTT7=
EXTT8=
EXTT9=
EXTT10=
EXTT11=
PLAYORDER=
